<svg width="1280" height="720" viewBox="0 0 1280 720" fill="none" xmlns="http://www.w3.org/2000/svg">
  <defs>
    <linearGradient id="bg" x1="85" y1="42" x2="1177" y2="673" gradientUnits="userSpaceOnUse">
      <stop stop-color="#06101C"/>
      <stop offset="0.5" stop-color="#0B1830"/>
      <stop offset="1" stop-color="#081321"/>
    </linearGradient>
    <linearGradient id="panel" x1="111" y1="121" x2="1099" y2="598" gradientUnits="userSpaceOnUse">
      <stop stop-color="#122640" stop-opacity="0.98"/>
      <stop offset="1" stop-color="#0B1623" stop-opacity="0.99"/>
    </linearGradient>
    <linearGradient id="banner" x1="160" y1="160" x2="975" y2="160" gradientUnits="userSpaceOnUse">
      <stop stop-color="#11253C"/>
      <stop offset="1" stop-color="#10233A"/>
    </linearGradient>
    <linearGradient id="accent" x1="958" y1="92" x2="1226" y2="330" gradientUnits="userSpaceOnUse">
      <stop stop-color="#64D8FF" stop-opacity="0.95"/>
      <stop offset="1" stop-color="#64D8FF" stop-opacity="0"/>
    </linearGradient>
    <radialGradient id="orbGlow" cx="0" cy="0" r="1" gradientUnits="userSpaceOnUse" gradientTransform="translate(1062 290) rotate(90) scale(108)">
      <stop stop-color="#8AF3FF"/>
      <stop offset="0.58" stop-color="#2BA9E5"/>
      <stop offset="1" stop-color="#0C355B"/>
    </radialGradient>
    <filter id="shadow" x="72" y="76" width="1136" height="580" filterUnits="userSpaceOnUse" color-interpolation-filters="sRGB">
      <feFlood flood-opacity="0" result="BackgroundImageFix"/>
      <feColorMatrix in="SourceAlpha" type="matrix" values="0 0 0 0 0 0 0 0 0 0 0 0 0 0 0 0 0 0 127 0" result="hardAlpha"/>
      <feOffset dy="18"/>
      <feGaussianBlur stdDeviation="24"/>
      <feComposite in2="hardAlpha" operator="out"/>
      <feColorMatrix type="matrix" values="0 0 0 0 0.01 0 0 0 0 0.04 0 0 0 0 0.1 0 0 0 0.52 0"/>
      <feBlend mode="normal" in2="BackgroundImageFix" result="effect1_dropShadow_1_2"/>
      <feBlend mode="normal" in="SourceGraphic" in2="effect1_dropShadow_1_2" result="shape"/>
    </filter>
  </defs>

  <rect width="1280" height="720" rx="36" fill="url(#bg)"/>
  <circle cx="1168" cy="96" r="166" fill="url(#accent)"/>
  <circle cx="158" cy="596" r="144" fill="#0D2743" fill-opacity="0.55"/>

  <g filter="url(#shadow)">
    <rect x="112" y="100" width="1056" height="500" rx="30" fill="url(#panel)" stroke="#254D73" stroke-opacity="0.78"/>
    <rect x="112" y="100" width="1056" height="84" rx="30" fill="url(#banner)"/>
    <circle cx="162" cy="142" r="10" fill="#385A80"/>
    <circle cx="196" cy="142" r="10" fill="#385A80"/>
    <circle cx="230" cy="142" r="10" fill="#385A80"/>
    <text x="278" y="149" fill="#C4DDF2" font-family="SF Pro Display, Inter, Arial, sans-serif" font-size="22" font-weight="600">JARVIS // LOCAL RUNTIME</text>

    <text x="176" y="275" fill="#F2F8FF" font-family="SF Pro Display, Inter, Arial, sans-serif" font-size="72" font-weight="700">Jarvis AI</text>
    <text x="178" y="328" fill="#89DAFF" font-family="SF Mono, Menlo, monospace" font-size="18" letter-spacing="0.14em">LOCAL-FIRST   •   OPEN-SOURCE-FIRST   •   MACOS DESKTOP ASSISTANT</text>

    <text x="178" y="404" fill="#D7E7F6" font-family="SF Pro Display, Inter, Arial, sans-serif" font-size="30" font-weight="500">A private assistant that can think, listen, see, remember,</text>
    <text x="178" y="442" fill="#D7E7F6" font-family="SF Pro Display, Inter, Arial, sans-serif" font-size="30" font-weight="500">and act on your Mac before it ever needs a paid model.</text>

    <rect x="178" y="490" width="172" height="42" rx="21" fill="#123659" stroke="#2C6C96"/>
    <text x="205" y="517" fill="#E6F6FF" font-family="SF Mono, Menlo, monospace" font-size="18">DeepSeek R1</text>

    <rect x="366" y="490" width="164" height="42" rx="21" fill="#123659" stroke="#2C6C96"/>
    <text x="414" y="517" fill="#E6F6FF" font-family="SF Mono, Menlo, monospace" font-size="18">Gemma 4</text>

    <rect x="546" y="490" width="210" height="42" rx="21" fill="#123659" stroke="#2C6C96"/>
    <text x="586" y="517" fill="#E6F6FF" font-family="SF Mono, Menlo, monospace" font-size="18">faster-whisper</text>

    <circle cx="1062" cy="290" r="106" fill="url(#orbGlow)"/>
    <circle cx="1062" cy="290" r="72" fill="#05192A" stroke="#98EAFF" stroke-opacity="0.72" stroke-width="3"/>
    <path d="M1062 242C1086.301 242 1106 261.699 1106 286V295C1106 319.301 1086.301 339 1062 339C1037.699 339 1018 319.301 1018 295V286C1018 261.699 1037.699 242 1062 242Z" fill="#92EEFF" fill-opacity="0.9"/>
    <path d="M1025 367C1038.803 347.392 1060.927 336 1084.578 336H1091.5C1106.217 336 1120.197 340.688 1131.6 349.191C1112.585 375.321 1082.164 392 1047.848 392C1039.732 392 1031.821 390.983 1024.238 389.047L1025 367Z" fill="#92EEFF" fill-opacity="0.7"/>
    <rect x="958" y="186" width="208" height="208" rx="104" stroke="#86DEFF" stroke-opacity="0.35" stroke-width="2"/>
    <rect x="930" y="158" width="264" height="264" rx="132" stroke="#86DEFF" stroke-opacity="0.16" stroke-width="2"/>

    <rect x="824" y="490" width="274" height="72" rx="18" fill="#0A1C2F" stroke="#21496D"/>
    <text x="850" y="519" fill="#87DCFF" font-family="SF Mono, Menlo, monospace" font-size="17">DESKTOP APP</text>
    <text x="850" y="546" fill="#DCEBFA" font-family="SF Pro Display, Inter, Arial, sans-serif" font-size="20">Desktop and Applications stay in sync</text>
  </g>

  <g>
    <rect x="122" y="632" width="166" height="44" rx="0" fill="#6B6A72"/>
    <text x="142" y="660" fill="#F5F7FA" font-family="SF Mono, Menlo, monospace" font-size="16" letter-spacing="0.12em">PLATFORM</text>
    <text x="250" y="660" fill="#F5F7FA" font-family="SF Mono, Menlo, monospace" font-size="16" font-weight="700">MACOS</text>

    <rect x="296" y="632" width="178" height="44" fill="#5D5E65"/>
    <text x="318" y="660" fill="#F5F7FA" font-family="SF Mono, Menlo, monospace" font-size="16" letter-spacing="0.12em">PYTHON</text>
    <text x="416" y="660" fill="#F5F7FA" font-family="SF Mono, Menlo, monospace" font-size="16" font-weight="700">3.12+</text>

    <rect x="482" y="632" width="198" height="44" fill="#5A5D64"/>
    <text x="506" y="660" fill="#F5F7FA" font-family="SF Mono, Menlo, monospace" font-size="16" letter-spacing="0.12em">LOCAL MODELS</text>

    <rect x="688" y="632" width="158" height="44" fill="#203C66"/>
    <text x="722" y="660" fill="#F5F7FA" font-family="SF Mono, Menlo, monospace" font-size="16" letter-spacing="0.12em">OLLAMA</text>

    <rect x="854" y="632" width="156" height="44" fill="#5A5D64"/>
    <text x="884" y="660" fill="#F5F7FA" font-family="SF Mono, Menlo, monospace" font-size="16" letter-spacing="0.12em">DESKTOP</text>

    <rect x="1018" y="632" width="140" height="44" fill="#203C66"/>
    <text x="1052" y="660" fill="#F5F7FA" font-family="SF Mono, Menlo, monospace" font-size="16" letter-spacing="0.12em">PYQT6</text>
  </g>
</svg>
